<?xml version="1.0" encoding="UTF-8"?>
<svg id="Layer_1" data-name="Layer 1" xmlns="http://www.w3.org/2000/svg" viewBox="0 0 111.72 111.72">
  <g fill="#928aff">
  <path d="M55.87,25.5c.23,0,.43.04.52.15,1.32,1.54,4.01,5.65,5.89,12.73,2.81,10.59,2.39,13.06,2.39,13.06,0,0,.97-.93,5.89-5.16,5.05-4.34,6.72-5.9,8.41-6.61.1-.04.2-.06.3-.06.34,0,.63.25.71.58.53,2.32.83,6.78-1.15,13.71-1.16,4.05-1.99,6.33-2.5,7.57.13.19.26.37.38.56.99-.69,2.85-1.85,6.15-3.57,3.83-2,6.4-2.49,9.52-3.01.07-.01.13-.02.2-.02.43,0,.78.24.74.61-.7,6.63-5.95,12.83-10.57,17.24-7.49,7.15-15.99,13.72-26.77,13.72-7.93,0-14.17-3.25-20.26-8.04-7.15-5.62-16.29-13.16-17.31-22.93-.04-.37.32-.61.74-.61.06,0,.13,0,.2.02,3.13.53,5.7,1.01,9.52,3.01,3.5,1.83,5.37,3.02,6.32,3.69.1-.16.2-.31.31-.46-.51-1.18-1.37-3.49-2.59-7.79-1.98-6.94-1.68-11.39-1.15-13.71.08-.33.37-.58.71-.58.1,0,.2.02.3.06,1.68.72,3.36,2.28,8.41,6.61,4.92,4.23,5.89,5.16,5.89,5.16,0,0-.42-2.48,2.39-13.06,1.88-7.08,4.57-11.18,5.89-12.73.09-.11.29-.15.52-.15,0,0,0,0,.01,0,0,0,0,0,.01,0M55.87,20.46h0s0,0-.01,0,0,0-.01,0c-1.75,0-3.3.68-4.36,1.92-1.03,1.21-4.57,5.83-6.93,14.71-.43,1.61-.8,3.11-1.12,4.5-.28-.24-.55-.47-.81-.7-4.04-3.49-5.72-4.93-7.9-5.86-.72-.31-1.49-.47-2.27-.47-2.71,0-5.02,1.85-5.63,4.5-.6,2.62-.95,6.92.44,13.17-2.49-.92-4.68-1.35-7.09-1.75-.34-.06-.69-.09-1.03-.09-1.69,0-3.28.69-4.37,1.9-1.05,1.16-1.55,2.72-1.39,4.28,1.29,12.28,12.51,21.1,19.21,26.37,5.4,4.24,12.94,9.12,23.38,9.12,12.71,0,22.43-7.64,30.25-15.12,7.45-7.12,11.41-13.78,12.1-20.36.16-1.56-.34-3.12-1.39-4.28-1.09-1.21-2.68-1.91-4.37-1.91-.35,0-.69.03-1.03.09-2.41.41-4.6.83-7.09,1.75,1.38-6.25,1.04-10.55.44-13.17-.61-2.65-2.92-4.5-5.62-4.5-.78,0-1.55.16-2.27.47-2.19.93-3.86,2.37-7.9,5.86-.26.22-.53.45-.81.7-.32-1.39-.7-2.89-1.12-4.5-2.35-8.87-5.9-13.5-6.93-14.71-1.06-1.24-2.61-1.92-4.36-1.92h0Z"/>
  <path d="M55.86,9.69c25.46,0,46.17,20.71,46.17,46.17s-20.71,46.17-46.17,46.17S9.69,81.32,9.69,55.86,30.4,9.69,55.86,9.69M55.86,4.1C27.27,4.1,4.1,27.27,4.1,55.86s23.17,51.76,51.76,51.76,51.76-23.17,51.76-51.76S84.45,4.1,55.86,4.1h0Z"/>
</g>
</svg>