<?xml version="1.0" encoding="UTF-8"?>
<svg id="Layer_1" data-name="Layer 1" xmlns="http://www.w3.org/2000/svg" viewBox="0 0 71.09 53.04">
  <defs>
    <style>
      .cls-1 {
        fill: #618bc3;
      }

      .cls-2 {
        fill: #c081f8;
      }
    </style>
  </defs>
  <circle class="cls-2" cx="46.16" cy="29.1" r="11.74"/>
  <path class="cls-2" d="M36.67,39.85c-.38-.33-.86-.83-1.2-1.2-.31-.34-1.33-1.86-1.52-1.97-.19-.11-.32-.15-.53-.09h.01c-.16.05-.26.21-.32.35l-3.29,7.85c-.06.98.63.68,1.24.46,2.07-.74,5.09-2.01,7.06-2.98.33-.17.65-.27.58-.73-.05-.31-1.64-1.36-2.03-1.69Z"/>
  <path class="cls-2" d="M59.26,37c-.11-.28-.43-.5-.75-.41h0c-.21.06-1.27,1.63-1.55,1.95-.36.41-.9.95-1.31,1.31-.36.33-1.99,1.39-2.02,1.69-.02.19.09.41.23.53l7.96,3.4c.42.12.93-.26.72-.72l-3.27-7.76Z"/>
  <path class="cls-2" d="M32,32.73h0c.32-.33-.16-2.41-.19-2.98-.01-.38-.01-.82,0-1.2.02-.58.48-2.67.28-3-.09-.15-.43-.26-.6-.17-2.16.94-4.38,1.72-6.55,2.63-.6.25-2.64.85-1.39,1.6,2.73,1.05,5.42,2.31,8.18,3.23.09-.02.21-.05.27-.11Z"/>
  <g>
    <path class="cls-1" d="M31.14,36.11s.03-.06.04-.09c.24-.51.56-.85.87-1.09-.11.02-.22.04-.32.04-.23,0-.46-.04-.68-.11-1.77-.59-3.49-1.31-5.16-2-1.02-.42-2.08-.86-3.11-1.26-.12-.04-.23-.1-.34-.16-1.41-.85-1.47-2.06-1.42-2.54.16-1.76,1.93-2.42,2.88-2.78.08-.03.15-.06.2-.08.04-.02.09-.04.13-.05-4.78-2.92-8.35-7.87-9.29-13.42-.6-3.54-.21-6.92.7-10.35C3.16,6.7-1.64,22.21,6.41,32.95c5.81,7.77,15.4,9.68,23.26,6.68l1.47-3.51Z"/>
    <path class="cls-1" d="M33.36,34.44s-.02-.04-.02-.07c-.03.02-.06.05-.09.07.04,0,.08,0,.11,0Z"/>
  </g>
  <path class="cls-2" d="M68.78,28.58c-.43-.26-1.41-.57-1.94-.79-1.74-.73-3.78-1.64-5.54-2.21-.6-.2-1.14-.48-1.12.46.01,1.25.42,2.42.33,3.82-.04.58-.53,2.52-.19,2.87h0c.14.13.43.14.6.06l7.85-3.18c.52-.22.46-.75,0-1.02Z"/>
  <path class="cls-2" d="M49.79,43.26c-.34-.33-2.3.16-2.87.19-1.41.09-2.58-.32-3.82-.33-.94-.01-.66.52-.46,1.12.58,1.76,1.49,3.8,2.21,5.54.26.6,1.02,3.27,1.82,1.94l3.25-8.09c-.02-.11-.04-.28-.13-.36h0Z"/>
  <path class="cls-2" d="M33.1,21.27c.13.31.37.44.7.34.2-.06,1.37-1.74,1.66-2.06.34-.38.83-.87,1.2-1.2.35-.31,1.8-1.27,1.92-1.47.11-.18.15-.32.09-.53-.14-.44-7.46-3.24-8.42-3.66h0c-.33.1-.59.41-.47.75l3.32,7.83Z"/>
  <path class="cls-2" d="M55.76,18.45c.38.34.87.83,1.2,1.2.54.62,1.62,2.85,2.3,1.54.86-2.43,2.18-4.8,3.05-7.21.16-.43.54-1.32-.31-1.28l-8.01,3.33c-.23.1-.38.38-.36.62.03.28,1.75,1.46,2.13,1.8Z"/>
  <path class="cls-2" d="M45.71,14.74c1.22-.04,2.26.27,3.39.33.57.03.83-.04.8-.68-.97-2.13-1.74-4.36-2.66-6.52-.24-.57-.56-1.94-1.28-1.73h0c-.28.09-.74,1.37-.89,1.73-.91,2.16-1.69,4.39-2.63,6.55-.09.17.02.51.17.6.32.19,2.52-.26,3.11-.28Z"/>
</svg>