<?xml version="1.0" encoding="UTF-8"?>
<svg id="Layer_1" data-name="Layer 1" xmlns="http://www.w3.org/2000/svg" viewBox="0 0 64.63 64.59">
  <g fill="#ffffff">
  <circle cx="32.34" cy="32.29" r="16.5"/>  </g>
  <g fill="#ffffff">
  <path d="M14.43,42.82c.3-.09.49-.04.75.12s1.7,2.29,2.13,2.77c.48.53,1.15,1.22,1.69,1.69s2.78,1.94,2.85,2.38c.09.64-.35.78-.82,1.02-2.77,1.37-7.01,3.15-9.92,4.19-.85.3-1.83.73-1.74-.65l4.63-11.03c.09-.19.23-.42.45-.48Z"/>
  <path d="M49.7,42.82c.44-.12.89.18,1.05.58l4.6,10.9c.29.64-.42,1.18-1.01,1.01l-11.19-4.78c-.2-.18-.35-.48-.32-.75.04-.42,2.33-1.92,2.84-2.38.57-.5,1.34-1.27,1.84-1.84.39-.45,1.88-2.66,2.18-2.74Z"/>
  <path d="M12.44,37.39c-.09.09-.25.13-.38.16-3.89-1.3-7.66-3.07-11.5-4.54-1.76-1.06,1.11-1.9,1.95-2.25,3.04-1.28,6.17-2.38,9.2-3.7.24-.12.71.03.84.24.28.46-.36,3.4-.39,4.21-.02.54-.02,1.15,0,1.69.04.81.72,3.72.27,4.18Z"/>
  <path d="M52.24,37.39c-.48-.49.22-3.22.27-4.03.12-1.97-.45-3.62-.47-5.37-.02-1.32.73-.93,1.58-.65,2.47.81,5.34,2.09,7.78,3.11.74.31,2.12.75,2.72,1.11.64.38.73,1.13,0,1.44l-11.03,4.47c-.25.11-.66.1-.85-.09Z"/>
  <path d="M37.44,52.19c.12.12.15.35.18.51l-4.57,11.37c-1.12,1.88-2.2-1.87-2.56-2.72-1.02-2.44-2.3-5.31-3.11-7.78-.28-.85-.67-1.6.65-1.58,1.74.02,3.39.59,5.37.47.8-.05,3.55-.74,4.03-.27Z"/>
  </g>
  <g fill="#ffffff">
    <path d="M9.98,9.23c1.34.59,11.64,4.53,11.83,5.15.09.3.04.49-.12.75-.17.28-2.21,1.62-2.7,2.06-.53.47-1.21,1.16-1.69,1.69-.41.45-2.05,2.81-2.33,2.89-.47.14-.81-.05-.99-.48l-4.66-11c-.17-.49.2-.92.66-1.05Z"/>
    <path d="M54.6,9.25c1.19-.06.65,1.19.43,1.8-1.22,3.38-3.07,6.72-4.28,10.13-.95,1.85-2.47-1.29-3.23-2.16-.47-.53-1.15-1.21-1.69-1.69s-2.96-2.14-3-2.53c-.03-.34.19-.73.51-.87l11.26-4.68Z"/>
    <path d="M32.06.03c1.01-.3,1.46,1.63,1.8,2.43,1.29,3.03,2.38,6.16,3.74,9.16.05.9-.32,1-1.12.96-1.59-.09-3.06-.53-4.77-.47-.83.03-3.92.66-4.37.39-.21-.13-.36-.6-.24-.84,1.32-3.03,2.42-6.16,3.7-9.2.21-.5.85-2.31,1.25-2.43Z"/>
  </g>
</svg>