<?xml version="1.0" encoding="UTF-8"?>
<svg id="Layer_1" data-name="Layer 1" xmlns="http://www.w3.org/2000/svg" viewBox="0 0 143.47 144">
  <defs>
    <style>
      .cls-1 {
        fill: #fff;
      }
    </style>
  </defs>
  <path class="cls-1" d="M141.29,72.27c0,38.25-31.01,69.25-69.25,69.25S2.78,110.52,2.78,72.27,33.79,3.02,72.04,3.02s69.25,31.01,69.25,69.25ZM96.92,61.69c0-13.74-11.14-24.88-24.88-24.88s-24.88,11.14-24.88,24.88,11.14,24.88,24.88,24.88,24.88-11.14,24.88-24.88ZM53.99,91c-8.61,1.26-21.38,13.98-25,21.83,22.5,25.64,63.62,25.62,86.09,0-3.29-7.99-18.79-22.8-27.54-21.95-4.94.48-8.82,3.78-15.51,3.78-6.46,0-13.37-4.34-18.05-3.65Z"/>
</svg>